<?xml version="1.0" encoding="UTF-8" standalone="no"?>
<svg width="234px" height="238px" viewBox="0 0 234 238" version="1.1" xmlns="http://www.w3.org/2000/svg" xmlns:xlink="http://www.w3.org/1999/xlink" xmlns:sketch="http://www.bohemiancoding.com/sketch/ns">
    <!-- Generator: Sketch 3.3 (11970) - http://www.bohemiancoding.com/sketch -->
    <title>logo</title>
    <desc>Created with Sketch.</desc>
    <defs></defs>
    <g id="Page-1" stroke="none" stroke-width="1" fill="none" fill-rule="evenodd" sketch:type="MSPage">
        <g id="logo" sketch:type="MSLayerGroup" fill="#3498CB">
            <g id="Group" sketch:type="MSShapeGroup">
                <path d="M117.003,237.738 C53.045,237.735 0.996,185.702 0.978,121.749 C0.97,94.806 10.427,68.583 27.622,47.809 L41.074,72.774 C31.618,87.389 26.623,104.312 26.628,121.739 C26.641,171.557 67.182,212.088 117,212.088 C141.16,212.08 163.861,202.672 180.923,185.601 C197.984,168.527 207.38,145.831 207.375,121.689 C207.362,72.046 167.099,31.626 117.519,31.345 L117.519,5.695 C181.242,5.973 233.007,57.898 233.022,121.681 C233.04,185.657 181.009,237.72 117.036,237.738 L117.003,237.738 L117.003,237.738 Z" id="XMLID_2_"></path>
                <path d="M117.524,145.679 C107.289,145.679 98.348,140.426 93.609,131.627 L31.378,16.185 C38.937,9.999 47.028,4.786 56.082,0.262 L65.609,17.735 L66.054,17.518 C75.068,13.09 84.536,9.87 94.2,7.948 L95.869,7.614 L100.909,32.766 L99.235,33.097 C92.05,34.531 84.996,36.885 78.271,40.092 L77.78,40.327 L116.01,111.217 C116.802,112.689 118.334,113.602 120.011,113.602 C120.803,113.602 121.968,113.4 123.036,112.434 L169.877,75.734 C175.965,81.783 182.204,93.47 184.404,100.987 L136.592,139.085 C131.067,143.335 124.294,145.679 117.524,145.679 L117.524,145.679 Z" id="XMLID_1_"></path>
            </g>
        </g>
    </g>
</svg>