<?xml version="1.0" encoding="utf-8"?>
<!-- Generator: Adobe Illustrator 18.1.1, SVG Export Plug-In . SVG Version: 6.00 Build 0)  -->
<svg version="1.1" id="Layer_1" xmlns="http://www.w3.org/2000/svg" xmlns:xlink="http://www.w3.org/1999/xlink" x="0px" y="0px"
	 width="1000px" height="600px" viewBox="490 -260 1000 600" enable-background="new 490 -260 1000 600" xml:space="preserve">
<g id="XMLID_1_">
</g>
<path id="XMLID_2_" fill="#2D343D" d="M553.8-171.2c-13.1,0-23.8-10.7-23.8-23.8c0-5.5,1.9-10.9,5.5-15.2l2.8,5.1
	c-1.9,3-3,6.5-3,10.1c0,10.2,8.3,18.6,18.6,18.6c5,0,9.6-1.9,13.1-5.4c3.5-3.5,5.4-8.2,5.4-13.1c0-10.2-8.3-18.5-18.5-18.6v-5.3
	c13.1,0.1,23.7,10.7,23.7,23.8C577.7-181.9,567-171.2,553.8-171.2L553.8-171.2L553.8-171.2z M554-190.1c-2.1,0-3.9-1.1-4.9-2.9
	l-12.8-23.7c1.6-1.3,3.2-2.3,5.1-3.3l2,3.6l0.1,0c1.9-0.9,3.8-1.6,5.8-2l0.3-0.1l1,5.2l-0.3,0.1c-1.5,0.3-2.9,0.8-4.3,1.4l-0.1,0
	l7.9,14.6c0.2,0.3,0.5,0.5,0.8,0.5c0.2,0,0.4,0,0.6-0.2l9.6-7.5c1.3,1.2,2.5,3.6,3,5.2l-9.8,7.8C556.7-190.6,555.3-190.1,554-190.1z
	 M629.2-191v-9.5h4.1v-3.7h-4.1v-5.3h-4.4v18.7c0,2.6,2.1,4.7,4.7,4.7h5.4v-3.7h-4.5C629.8-189.8,629.2-190.3,629.2-191z
	 M613.7-204.4c-1.7,0-3.3,0.6-4.7,1.7v-1.5h-0.7h-3.7v18.1h4.4v-9.7c0-2.7,1.8-4.6,4.3-4.6c2.5,0,4.1,1.9,4.1,4.6v9.7h4.5v-9.7
	C621.8-200.1,619-204.4,613.7-204.4z M592.5-204.7c-5.3,0-9.6,4.3-9.6,9.6c0,5.3,4.3,9.6,9.6,9.6c5.3,0,9.6-4.3,9.6-9.6
	C602.1-200.4,597.8-204.7,592.5-204.7z M592.5-189.5c-3.1,0-5.6-2.5-5.6-5.6c0-3.1,2.5-5.6,5.6-5.6c3.1,0,5.6,2.5,5.6,5.6
	C598.1-192,595.6-189.5,592.5-189.5z M637.8-205.8h4.5v-3.7h-4.5V-205.8z M666-204.4c-2.1,0-4,1-5.6,3.1c-1.5-2.1-3.4-3.1-5.8-3.1
	c-1.4,0-2.8,0.5-4,1.5v-1.3h-0.7h-3.7v15v3.1h4.4v-10c0-2.6,1.4-4.3,3.6-4.3c2.1,0,3.4,1.7,3.4,4.3v10h4.5l0-10.3
	c0.1-2.4,1.5-3.9,3.6-3.9c1.6,0,3.4,1.3,3.4,4.3v10h4.5v-9.7C673.4-201,670.5-204.4,666-204.4z M685.3-204.7c-5.3,0-9.6,4.3-9.6,9.6
	c0,5.3,4.3,9.6,9.6,9.6c3.5,0,6.8-1.9,8.5-5.1l0-0.1h-5.1c-1,0.7-2.2,1.1-3.4,1.1c-2.4,0-4.5-1.5-5.3-3.8h7.4h7.3l0-0.1
	c0.1-0.6,0.2-1.2,0.2-1.7C695-200.4,690.6-204.7,685.3-204.7z M680-197c0.8-2.2,2.9-3.8,5.3-3.8c2.4,0,4.5,1.5,5.3,3.8H680z
	 M637.8-186.1h4.5v-18.1h-4.5V-186.1z"/>
<circle id="XMLID_663_" opacity="0.1" fill="#2D343D" enable-background="new    " cx="553" cy="-97.2" r="13"/>
<circle id="XMLID_662_" fill="#3599CC" cx="553" cy="-97.2" r="12.5"/>
<circle id="XMLID_661_" fill="#FFFFFF" cx="553" cy="-97.2" r="8"/>
<circle id="XMLID_660_" opacity="0.1" fill="#2D343D" enable-background="new    " cx="553" cy="-57.2" r="13"/>
<circle id="XMLID_659_" fill="#2E86AA" cx="553" cy="-57.2" r="12.5"/>
<circle id="XMLID_658_" fill="#FFFFFF" cx="553" cy="-57.2" r="8"/>
<circle id="XMLID_430_" fill="#FFFFFF" stroke="#2D343D" stroke-miterlimit="10" cx="552.7" cy="2.9" r="6.5"/>
<circle id="XMLID_429_" fill="#FFFFFF" stroke="#2D343D" stroke-miterlimit="10" cx="552.7" cy="32.9" r="6.5"/>
<circle id="XMLID_428_" fill="#FFFFFF" stroke="#C2C7CC" stroke-miterlimit="10" cx="552.7" cy="62.9" r="6.5"/>
<circle id="XMLID_427_" fill="#2D343D" cx="552.7" cy="2.9" r="2"/>
<g id="XMLID_566_">
	<path id="XMLID_603_" fill="#FFFFFF" d="M843.2-189.9l1.6-2.1c1,1,2.5,1.8,4.3,1.8c1.6,0,2.4-0.7,2.4-1.5c0-2.3-7.9-0.7-7.9-5.7
		c0-2.2,2-4,5.2-4c2.2,0,4,0.6,5.3,1.8l-1.6,2.1c-1.1-1-2.6-1.4-4-1.4c-1.2,0-1.9,0.5-1.9,1.3c0,2.1,7.8,0.7,7.8,5.6
		c0,2.4-1.8,4.2-5.5,4.2C846.3-187.8,844.4-188.6,843.2-189.9z"/>
	<path id="XMLID_600_" fill="#FFFFFF" d="M858.9-189.2v4.9h-2.6v-13.2h2.6v1.2c0.8-0.9,1.8-1.4,3-1.4c2.5,0,4.4,1.8,4.4,5
		s-1.8,5-4.4,5C860.8-187.8,859.7-188.2,858.9-189.2z M863.6-192.8c0-1.6-1-2.8-2.5-2.8c-0.8,0-1.8,0.5-2.2,1.1v3.4
		c0.4,0.6,1.4,1.1,2.2,1.1C862.6-190,863.6-191.1,863.6-192.8z"/>
	<path id="XMLID_599_" fill="#FFFFFF" d="M874.9-188v-1.2c-0.7,0.7-1.9,1.4-3.5,1.4c-2.2,0-3.2-1.1-3.2-3v-6.8h2.6v5.8
		c0,1.3,0.7,1.8,1.8,1.8c1,0,1.8-0.5,2.3-1.1v-6.5h2.6v9.5L874.9-188L874.9-188z"/>
	<path id="XMLID_598_" fill="#FFFFFF" d="M880.6-190.4v-5H879v-2.2h1.6v-2.6h2.6v2.6h2v2.2h-2v4.3c0,0.6,0.3,1,0.9,1
		c0.4,0,0.8-0.1,0.9-0.3l0.6,1.9c-0.4,0.3-1.1,0.6-2.2,0.6C881.6-187.8,880.6-188.7,880.6-190.4z"/>
	<path id="XMLID_597_" fill="#FFFFFF" d="M893.7-188v-5.8c0-1.3-0.7-1.8-1.8-1.8c-1,0-1.8,0.6-2.3,1.1v6.4H887v-9.5h2.6v1.2
		c0.6-0.7,1.8-1.5,3.5-1.5c2.2,0,3.2,1.2,3.2,3v6.7h-2.6L893.7-188C893.7-188,893.7-188,893.7-188z"/>
	<path id="XMLID_594_" fill="#FFFFFF" d="M898.6-200.1c0-0.8,0.7-1.5,1.6-1.5s1.6,0.7,1.6,1.5s-0.7,1.5-1.6,1.5
		S898.6-199.2,898.6-200.1z M898.9-188v-9.5h2.6v9.5H898.9z"/>
	<path id="XMLID_593_" fill="#FFFFFF" d="M910.5-188l-2.6-3.7l-1.2,1.2v2.4H904v-13.2h2.6v7.9l3.7-4.2h3.2l-3.9,4.3l4,5.2L910.5-188
		L910.5-188L910.5-188z"/>
	<path id="XMLID_592_" fill="#FFFFFF" d="M919.7-198.4c0-2.4,1.8-4,4-4c1.3,0,2.2,0.5,2.9,1.4l-0.6,0.4c-0.5-0.7-1.4-1.1-2.3-1.1
		c-1.9,0-3.3,1.4-3.3,3.4s1.4,3.4,3.3,3.4c1,0,1.8-0.4,2.3-1.1l0.6,0.3c-0.7,0.8-1.6,1.4-2.9,1.4C921.5-194.4,919.7-196,919.7-198.4
		z"/>
	<path id="XMLID_591_" fill="#FFFFFF" d="M928-194.6v-5.6h0.6v1c0.5-0.6,1.1-1.1,1.9-1.1v0.7c-0.1,0-0.2,0-0.3,0
		c-0.6,0-1.4,0.5-1.6,1v4H928L928-194.6z"/>
	<path id="XMLID_588_" fill="#FFFFFF" d="M931.4-197.4c0-1.6,1.2-2.9,2.8-2.9c1.8,0,2.7,1.3,2.7,2.9v0.2h-4.8
		c0.1,1.2,0.9,2.2,2.3,2.2c0.7,0,1.4-0.3,1.9-0.8l0.3,0.4c-0.6,0.6-1.3,0.9-2.3,0.9C932.7-194.4,931.4-195.6,931.4-197.4z
		 M934.2-199.7c-1.4,0-2,1.1-2.1,2.1h4.2C936.3-198.6,935.7-199.7,934.2-199.7z"/>
	<path id="XMLID_585_" fill="#FFFFFF" d="M942.8-194.6v-0.9c-0.4,0.6-1.1,1-2,1c-1.5,0-2.6-1.1-2.6-2.9c0-1.8,1-2.9,2.6-2.9
		c0.8,0,1.5,0.4,2,1v-3h0.6v7.7L942.8-194.6L942.8-194.6z M942.8-196v-2.7c-0.3-0.5-1.1-1-1.9-1c-1.3,0-2,1-2,2.4
		c0,1.4,0.7,2.4,2,2.4C941.7-195,942.5-195.4,942.8-196z"/>
	<path id="XMLID_582_" fill="#FFFFFF" d="M945.2-201.5c0-0.3,0.2-0.4,0.5-0.4s0.5,0.2,0.5,0.4c0,0.3-0.2,0.5-0.5,0.5
		C945.4-201,945.2-201.2,945.2-201.5z M945.4-194.6v-5.6h0.6v5.6H945.4z"/>
	<path id="XMLID_581_" fill="#FFFFFF" d="M948-195.6v-4h-1v-0.5h1v-1.5h0.6v1.5h1.2v0.5h-1.2v3.9c0,0.4,0.2,0.8,0.6,0.8
		c0.3,0,0.5-0.1,0.6-0.3l0.2,0.5c-0.2,0.2-0.5,0.3-1,0.3C948.4-194.4,948-194.9,948-195.6z"/>
	<path id="XMLID_580_" fill="#FFFFFF" d="M954-198.4c0-2.4,1.8-4,4-4c1.3,0,2.2,0.5,2.9,1.4l-0.6,0.4c-0.5-0.7-1.4-1.1-2.3-1.1
		c-1.9,0-3.3,1.4-3.3,3.4s1.4,3.4,3.3,3.4c1,0,1.8-0.4,2.3-1.1l0.6,0.3c-0.7,0.8-1.6,1.4-2.9,1.4C955.8-194.4,954-196,954-198.4z"/>
	<path id="XMLID_577_" fill="#FFFFFF" d="M962-197.4c0-1.6,1.1-2.9,2.8-2.9c1.7,0,2.8,1.3,2.8,2.9s-1.1,2.9-2.8,2.9
		C963.1-194.4,962-195.7,962-197.4z M966.9-197.4c0-1.2-0.8-2.4-2.1-2.4s-2.1,1.1-2.1,2.4c0,1.2,0.8,2.4,2.1,2.4
		S966.9-196.1,966.9-197.4z"/>
	<path id="XMLID_576_" fill="#FFFFFF" d="M973-194.6v-3.8c0-1.1-0.6-1.4-1.4-1.4c-0.7,0-1.5,0.4-1.9,1v4.2h-0.6v-5.6h0.6v0.8
		c0.4-0.5,1.2-1,2.1-1c1.2,0,1.8,0.6,1.8,1.8v3.9L973-194.6L973-194.6z"/>
	<path id="XMLID_575_" fill="#FFFFFF" d="M977.1-194.6l-2.4-5.6h0.7l2.1,4.9l2.1-4.9h0.7l-2.4,5.6
		C977.9-194.6,977.1-194.6,977.1-194.6z"/>
	<path id="XMLID_572_" fill="#FFFFFF" d="M981-197.4c0-1.6,1.2-2.9,2.8-2.9c1.8,0,2.7,1.3,2.7,2.9v0.2h-4.8c0.1,1.2,0.9,2.2,2.3,2.2
		c0.7,0,1.4-0.3,1.9-0.8l0.3,0.4c-0.6,0.6-1.3,0.9-2.3,0.9C982.2-194.4,981-195.6,981-197.4z M983.8-199.7c-1.4,0-2,1.1-2.1,2.1h4.2
		C985.8-198.6,985.2-199.7,983.8-199.7z"/>
	<path id="XMLID_571_" fill="#FFFFFF" d="M987.8-192.9c0.1,0.1,0.4,0.1,0.5,0.1c0.4,0,0.6-0.1,0.9-0.7l0.5-1l-2.4-5.6h0.7l2.1,4.9
		l2.1-4.9h0.7l-3,6.8c-0.3,0.7-0.8,1-1.5,1c-0.2,0-0.5,0-0.6-0.1L987.8-192.9L987.8-192.9z"/>
	<path id="XMLID_568_" fill="#FFFFFF" d="M993.5-197.4c0-1.6,1.2-2.9,2.8-2.9c1.8,0,2.7,1.3,2.7,2.9v0.2h-4.8
		c0.1,1.2,0.9,2.2,2.3,2.2c0.7,0,1.4-0.3,1.9-0.8l0.3,0.4c-0.6,0.6-1.3,0.9-2.3,0.9C994.7-194.4,993.5-195.6,993.5-197.4z
		 M996.3-199.7c-1.4,0-2,1.1-2.1,2.1h4.2C998.3-198.6,997.7-199.7,996.3-199.7z"/>
	<path id="XMLID_567_" fill="#FFFFFF" d="M1000.6-194.6v-5.6h0.6v1c0.5-0.6,1.1-1.1,1.9-1.1v0.7c-0.1,0-0.2,0-0.3,0
		c-0.6,0-1.4,0.5-1.6,1v4H1000.6L1000.6-194.6z"/>
</g>
<circle id="XMLID_73_" fill="#3599CC" stroke="#3599CC" stroke-miterlimit="10" cx="658.1" cy="-80.8" r="12"/>
<path id="XMLID_70_" fill="#FFFFFF" d="M659-80.2c1.9,0,3-1,3-2.8c0-1.7-1.1-2.8-3-2.8h-1.9h-0.5h-0.5v6.7H655v1.1h1.1v2.2h1.1V-78
	h3.8v-1.1h-3.8v-1.1L659-80.2L659-80.2z M657.2-84.8h1.9c1.3,0,1.9,0.5,1.9,1.7c0,1.1-0.6,1.7-1.9,1.7h-1.9V-84.8z"/>
<circle id="XMLID_63_" fill="#B9CE66" cx="698.1" cy="-80.8" r="12"/>
<path id="XMLID_17_" fill="#FFFFFF" stroke="#B9CE66" stroke-miterlimit="10" d="M700.4-81.6l-1.2-1.2v6.5c0,0.6-0.5,1.1-1.1,1.1
	s-1.1-0.5-1.1-1.1v-6.5l-1.2,1.2c-0.4,0.4-1.1,0.4-1.6,0c-0.4-0.4-0.4-1.1,0-1.6l3.1-3.1c0.4-0.4,1.1-0.4,1.6,0l3.1,3.1
	c0.4,0.4,0.4,1.1,0,1.6C701.7-81.2,700.9-81.2,700.4-81.6z"/>
<circle id="XMLID_94_" fill="#E2C84E" cx="738.1" cy="-80.8" r="12"/>
<g id="XMLID_18_">
	<path id="XMLID_20_" fill="#FFFFFF" d="M738.1-74.3c3.6,0,6.5-2.9,6.5-6.5s-2.9-6.5-6.5-6.5s-6.5,2.9-6.5,6.5
		S734.5-74.3,738.1-74.3z M738.1-86.1c2.9,0,5.2,2.3,5.2,5.2s-2.3,5.2-5.2,5.2s-5.2-2.3-5.2-5.2S735.2-86.1,738.1-86.1z"/>
	<path id="XMLID_19_" fill="#FFFFFF" d="M737.5-80.8C737.5-80.8,737.5-80.6,737.5-80.8C737.5-80.6,737.5-80.6,737.5-80.8
		c0,0.1,0,0.1,0,0.2c0,0,0,0,0,0.1c0,0,0,0.1,0.1,0.1l0,0l2.6,2.6c0.3,0.3,0.7,0.3,0.9,0c0.3-0.3,0.3-0.7,0-0.9l-2.4-2.4v-2.6
		c0-0.4-0.3-0.7-0.7-0.7c-0.4,0-0.7,0.3-0.7,0.7v2.9C737.4-80.8,737.5-80.8,737.5-80.8z"/>
</g>
<path id="XMLID_27_" fill="#B9CE66" d="M659,2.8c0,0,0-0.1,0-0.1l-2.8-4.5c-0.1-0.1-0.2-0.1-0.3,0L653,2.7c-0.1,0.1,0,0.3,0.2,0.3
	h1.9V25h1.8V2.9h1.9C658.9,2.9,659,2.9,659,2.8z"/>
<path id="XMLID_28_" fill="#E0E0E1" d="M803.5,246c-1.4,0-2.5-1.1-2.5-2.5c0-1.4,1.1-2.5,2.5-2.5c1.4,0,2.5,1.1,2.5,2.5
	C806,244.9,804.9,246,803.5,246z M803.5,236c-1.4,0-2.5-1.1-2.5-2.5c0-1.4,1.1-2.5,2.5-2.5c1.4,0,2.5,1.1,2.5,2.5
	C806,234.9,804.9,236,803.5,236z M803.5,226c-1.4,0-2.5-1.1-2.5-2.5c0-1.4,1.1-2.5,2.5-2.5c1.4,0,2.5,1.1,2.5,2.5
	C806,224.9,804.9,226,803.5,226z M803.5,215c-1.4,0-2.5-1.1-2.5-2.5c0-1.4,1.1-2.5,2.5-2.5c1.4,0,2.5,1.1,2.5,2.5
	C806,213.9,804.9,215,803.5,215z M803.5,205c-1.4,0-2.5-1.1-2.5-2.5c0-1.4,1.1-2.5,2.5-2.5c1.4,0,2.5,1.1,2.5,2.5
	C806,203.9,804.9,205,803.5,205z M803.5,195c-1.4,0-2.5-1.1-2.5-2.5c0-1.4,1.1-2.5,2.5-2.5c1.4,0,2.5,1.1,2.5,2.5
	C806,193.9,804.9,195,803.5,195z M803.5,185c-1.4,0-2.5-1.1-2.5-2.5c0-1.4,1.1-2.5,2.5-2.5c1.4,0,2.5,1.1,2.5,2.5
	C806,183.9,804.9,185,803.5,185z M803.5,256c-1.4,0-2.5-1.1-2.5-2.5c0-1.4,1.1-2.5,2.5-2.5c1.4,0,2.5,1.1,2.5,2.5
	C806,254.9,804.9,256,803.5,256z M803.3,262c1.4,0,2.5,1.1,2.5,2.5c0,1.4-1.1,2.5-2.5,2.5s-2.5-1.1-2.5-2.5
	C800.8,263.2,801.9,262,803.3,262z M793.3,267c-1.4,0-2.5-1.1-2.5-2.5c0-1.4,1.1-2.5,2.5-2.5s2.5,1.1,2.5,2.5
	C795.8,265.9,794.7,267,793.3,267z M783.3,267c-1.4,0-2.5-1.1-2.5-2.5c0-1.4,1.1-2.5,2.5-2.5s2.5,1.1,2.5,2.5
	C785.8,265.9,784.7,267,783.3,267z M773.3,267c-1.4,0-2.5-1.1-2.5-2.5c0-1.4,1.1-2.5,2.5-2.5c1.4,0,2.5,1.1,2.5,2.5
	C775.8,265.9,774.7,267,773.3,267z M762.3,267c-1.4,0-2.5-1.1-2.5-2.5c0-1.4,1.1-2.5,2.5-2.5s2.5,1.1,2.5,2.5
	C764.8,265.9,763.7,267,762.3,267z M752.3,267C752.3,267,752.3,267,752.3,267C752.3,267,752.3,267,752.3,267c-1.4,0-2.5-1.1-2.5-2.5
	c0-1.4,1.1-2.5,2.5-2.5c0,0,0,0,0,0c0,0,0,0,0,0c1.4,0,2.5,1.1,2.5,2.5C754.8,265.9,753.7,267,752.3,267z M742.3,267
	C742.3,267,742.3,267,742.3,267C742.3,267,742.3,267,742.3,267c-1.4,0-2.5-1.1-2.5-2.5c0-1.4,1.1-2.5,2.5-2.5c0,0,0,0,0,0
	c0,0,0,0,0,0c1.4,0,2.5,1.1,2.5,2.5C744.8,265.9,743.7,267,742.3,267z M732.3,267C732.3,267,732.3,267,732.3,267
	C732.3,267,732.3,267,732.3,267c-1.4,0-2.5-1.1-2.5-2.5c0-1.4,1.1-2.5,2.5-2.5c0,0,0,0,0,0s0,0,0,0c1.4,0,2.5,1.1,2.5,2.5
	C734.8,265.9,733.7,267,732.3,267z M722.3,267c-1.4,0-2.5-1.1-2.5-2.5c0-1.4,1.1-2.5,2.5-2.5c1.4,0,2.5,1.1,2.5,2.5
	C724.8,265.9,723.7,267,722.3,267z M711.3,267c-1.4,0-2.5-1.1-2.5-2.5c0-1.4,1.1-2.5,2.5-2.5s2.5,1.1,2.5,2.5
	C713.8,265.9,712.7,267,711.3,267z M701.3,267c-1.4,0-2.5-1.1-2.5-2.5c0-1.4,1.1-2.5,2.5-2.5s2.5,1.1,2.5,2.5
	C703.8,265.9,702.7,267,701.3,267z M691.3,267c-1.4,0-2.5-1.1-2.5-2.5c0-1.4,1.1-2.5,2.5-2.5s2.5,1.1,2.5,2.5
	C693.8,265.9,692.7,267,691.3,267z M681.3,267c-1.4,0-2.5-1.1-2.5-2.5c0-1.4,1.1-2.5,2.5-2.5s2.5,1.1,2.5,2.5
	C683.8,265.9,682.7,267,681.3,267z M672.3,267c-1.4,0-2.5-1.1-2.5-2.5c0-1.4,1.1-2.5,2.5-2.5s2.5,1.1,2.5,2.5
	C674.8,265.9,673.7,267,672.3,267z M662.3,267c-1.4,0-2.5-1.1-2.5-2.5c0-1.4,1.1-2.5,2.5-2.5s2.5,1.1,2.5,2.5
	C664.8,265.9,663.7,267,662.3,267z M652.3,267c-1.4,0-2.5-1.1-2.5-2.5c0-1.4,1.1-2.5,2.5-2.5s2.5,1.1,2.5,2.5
	C654.8,265.9,653.7,267,652.3,267z M642.3,267c-1.4,0-2.5-1.1-2.5-2.5c0-1.4,1.1-2.5,2.5-2.5c1.4,0,2.5,1.1,2.5,2.5
	C644.8,265.9,643.7,267,642.3,267z M631.3,267c-1.4,0-2.5-1.1-2.5-2.5c0-1.4,1.1-2.5,2.5-2.5c1.4,0,2.5,1.1,2.5,2.5
	C633.8,265.9,632.7,267,631.3,267z M621.3,267c-1.4,0-2.5-1.1-2.5-2.5c0-1.4,1.1-2.5,2.5-2.5s2.5,1.1,2.5,2.5
	C623.8,265.9,622.7,267,621.3,267z M611.3,267c-1.4,0-2.5-1.1-2.5-2.5c0-1.4,1.1-2.5,2.5-2.5c1.4,0,2.5,1.1,2.5,2.5
	C613.8,265.9,612.7,267,611.3,267z M601.3,267c-1.4,0-2.5-1.1-2.5-2.5c0-1.4,1.1-2.5,2.5-2.5s2.5,1.1,2.5,2.5
	C603.8,265.9,602.7,267,601.3,267z M591.3,267c-1.4,0-2.5-1.1-2.5-2.5c0-1.4,1.1-2.5,2.5-2.5c1.4,0,2.5,1.1,2.5,2.5
	C593.8,265.9,592.7,267,591.3,267z M581.3,267c-1.4,0-2.5-1.1-2.5-2.5c0-1.4,1.1-2.5,2.5-2.5c1.4,0,2.5,1.1,2.5,2.5
	C583.8,265.9,582.7,267,581.3,267z M571.3,267c-1.4,0-2.5-1.1-2.5-2.5c0-1.4,1.1-2.5,2.5-2.5c1.4,0,2.5,1.1,2.5,2.5
	C573.8,265.9,572.7,267,571.3,267z M556,257v15l-10-7.5L556,257z"/>
<path id="XMLID_79_" fill="#E0E0E1" d="M685.5,149c-1.4,0-2.5-1.1-2.5-2.5c0-1.4,1.1-2.5,2.5-2.5s2.5,1.1,2.5,2.5
	C688,147.9,686.8,149,685.5,149z M673,146.5c0-1.4,1.1-2.5,2.5-2.5s2.5,1.1,2.5,2.5c0,1.4-1.1,2.5-2.5,2.5S673,147.9,673,146.5z
	 M663,146.5c0-1.4,1.1-2.5,2.5-2.5s2.5,1.1,2.5,2.5c0,1.4-1.1,2.5-2.5,2.5S663,147.9,663,146.5z M653,146.5c0-1.4,1.1-2.5,2.5-2.5
	s2.5,1.1,2.5,2.5c0,1.4-1.1,2.5-2.5,2.5S653,147.9,653,146.5z M643,146.5c0-1.4,1.1-2.5,2.5-2.5s2.5,1.1,2.5,2.5
	c0,1.4-1.1,2.5-2.5,2.5S643,147.9,643,146.5z M633,146.5c0-1.4,1.1-2.5,2.5-2.5s2.5,1.1,2.5,2.5c0,1.4-1.1,2.5-2.5,2.5
	S633,147.9,633,146.5z M625.5,149L625.5,149L625.5,149c-1.3,0-2.4-1-2.5-2.2c0-0.1,0-0.2,0-0.3c0-0.1,0-0.2,0-0.3
	c0.1-1.3,1.2-2.2,2.5-2.2l0,0l0,0c1.3,0,2.4,1,2.5,2.2c0,0.1,0,0.2,0,0.3c0,0.1,0,0.2,0,0.3C627.8,148,626.8,149,625.5,149z
	 M613,146.5c0-1.4,1.1-2.5,2.5-2.5s2.5,1.1,2.5,2.5c0,1.4-1.1,2.5-2.5,2.5S613,147.9,613,146.5z M603,146.5c0-1.4,1.1-2.5,2.5-2.5
	s2.5,1.1,2.5,2.5c0,1.4-1.1,2.5-2.5,2.5S603,147.9,603,146.5z M595.5,149L595.5,149L595.5,149c-1.3,0-2.4-1-2.5-2.2
	c0-0.1,0-0.2,0-0.3c0-0.1,0-0.2,0-0.3c0.1-1.3,1.2-2.2,2.5-2.2l0,0l0,0c1.3,0,2.4,1,2.5,2.2c0,0.1,0,0.2,0,0.3c0,0.1,0,0.2,0,0.3
	C597.8,148,596.8,149,595.5,149z M583,146.5c0-1.4,1.1-2.5,2.5-2.5s2.5,1.1,2.5,2.5c0,1.4-1.1,2.5-2.5,2.5S583,147.9,583,146.5z
	 M573,146.5c0-1.4,1.1-2.5,2.5-2.5s2.5,1.1,2.5,2.5c0,1.4-1.1,2.5-2.5,2.5S573,147.9,573,146.5z M563,146.5c0-1.4,1.1-2.5,2.5-2.5
	s2.5,1.1,2.5,2.5c0,1.4-1.1,2.5-2.5,2.5S563,147.9,563,146.5z M553,146.5c0-1.4,1.1-2.5,2.5-2.5s2.5,1.1,2.5,2.5
	c0,1.4-1.1,2.5-2.5,2.5S553,147.9,553,146.5z M543,146.5c0-1.4,1.1-2.5,2.5-2.5s2.5,1.1,2.5,2.5c0,1.4-1.1,2.5-2.5,2.5
	S543,147.9,543,146.5z"/>
<circle id="XMLID_102_" fill="#E93A3A" cx="657" cy="85" r="12"/>
<path id="XMLID_96_" fill="#FFFFFF" d="M652.4,89.8c0.7,0.5,1.6-1.7,1.8-2.1C653.8,88,651.7,89.3,652.4,89.8z M651.6,90.7
	c-0.9-0.5-0.7-1.6,0.1-2.4c0.6-0.7,1.7-1.4,3-2.1c0.3-1,0.5-2.1,0.6-3.1c-1.1-1-1.9-2-2.2-2.8c-0.4-1,0-1.8,1-2.1
	c1.1-0.4,1.8,0.2,2.2,1.2c0.3,0.8,0.4,2,0.2,3.3c0.8,0.7,1.6,1.3,2.5,1.9c1.4-0.4,2.6-0.5,3.5-0.4c1,0.2,1.6,0.8,1.4,1.7
	c-0.2,1-1,1.3-2.1,1.2c-0.8-0.1-1.9-0.6-3-1.2c-1.1,0.3-2.2,0.7-3.2,1.2C655.3,88.2,654,92.2,651.6,90.7z M656.1,85.6
	c0.5-0.2,1.1-0.4,1.6-0.6c-0.4-0.3-0.9-0.6-1.3-1C656.3,84.5,656.2,85.1,656.1,85.6L656.1,85.6z M655.4,81.6c0-0.4,0-2.7-0.9-2.4
	C653.5,79.5,655.1,81.2,655.4,81.6z M660.5,85.3c0.3,0.2,2.1,1,2.3,0.3C662.9,84.9,660.8,85.3,660.5,85.3z"/>
<circle id="XMLID_104_" fill="#3599CC" stroke="#3599CC" stroke-miterlimit="10" cx="697" cy="85" r="12"/>
<path id="XMLID_103_" fill="#FFFFFF" d="M691.6,82.3c0.1,0.2,0.2,0.5,0.3,0.9l1.8,6.8h1.5l1.6-5.8l1.4,5.8h1.5l2-6.2
	c0.2-0.5,0.3-0.9,0.4-1.2c0.1-0.2,0.2-0.4,0.2-0.5c0.1-0.1,0.1-0.2,0.2-0.3c0.1-0.1,0.2-0.1,0.3-0.2V81h-2.8v0.6
	c0.2,0,0.4,0.1,0.5,0.3c0.1,0.2,0.2,0.4,0.2,0.6c0,0.2,0,0.4-0.1,0.6c0,0.2-0.1,0.5-0.2,0.8l-1,3.2l-1.4-6.2h-1.4l-1.7,6.2l-0.9-3.7
	c0-0.2-0.1-0.4-0.1-0.6c0-0.2-0.1-0.3-0.1-0.5c0-0.2,0.1-0.4,0.2-0.5c0.1-0.1,0.3-0.2,0.5-0.3V81H691v0.6c0.2,0,0.3,0.1,0.4,0.2
	C691.5,81.9,691.6,82.1,691.6,82.3z"/>
<circle id="XMLID_111_" fill="#E2C84E" cx="737" cy="85" r="12"/>
<path id="XMLID_105_" fill="#FFFFFF" d="M742.1,89l-10.2,0c-0.2,0-0.9-0.1-0.9-0.9v-7.2c0-0.5,0.4-0.9,0.9-0.9h10.2
	c0.5,0,0.9,0.4,0.9,0.9v7.2C743,88.6,742.7,89,742.1,89z M742.1,80.9h-10.2v7.2h10.2V80.9z M734.6,86.8l2.2-2.7l0.9,0.9l1.8-2.3
	l2.2,3.2v1.7h-9.3l1.3-1.7L734.6,86.8z M732.3,87.6L732.3,87.6L732.3,87.6L732.3,87.6z M734.5,83.6c-0.8,0.1-1.4-0.5-1.3-1.3
	c0.1-0.5,0.5-0.9,0.9-0.9c0.8-0.1,1.4,0.5,1.3,1.3C735.3,83.1,735,83.5,734.5,83.6z"/>
<g id="XMLID_112_">
	<g id="XMLID_132_">
		
			<linearGradient id="XMLID_32_" gradientUnits="userSpaceOnUse" x1="1165.9922" y1="-169.996" x2="1165.9922" y2="-61.894" gradientTransform="matrix(1 0 0 -1 0 80)">
			<stop  offset="0" style="stop-color:#FFFFFF"/>
			<stop  offset="0.1285" style="stop-color:#FAFCF6"/>
			<stop  offset="0.3422" style="stop-color:#EDF4DC"/>
			<stop  offset="0.6146" style="stop-color:#D9E6B3"/>
			<stop  offset="0.9323" style="stop-color:#BCD47A"/>
			<stop  offset="0.9931" style="stop-color:#B6D06E"/>
		</linearGradient>
		<path id="XMLID_136_" opacity="0.8" fill="url(#XMLID_32_)" enable-background="new    " d="M923,202l486-60.1V250H923V202z"/>
		<circle id="XMLID_135_" fill="#B6D06E" cx="922.5" cy="202.5" r="3.5"/>
		<circle id="XMLID_134_" fill="#B6D06E" cx="1408.5" cy="141.5" r="3.5"/>
		<path id="XMLID_133_" fill="#B6D06E" d="M921,202.5l-0.1-1l488-60l0.1,1L921,202.5z"/>
	</g>
	<g id="XMLID_113_">
		<path id="XMLID_131_" fill="#FFFFFF" d="M1336.3,251H995.7H923v-1h72.7h340.6h72.7v1H1336.3z"/>
		<path id="XMLID_117_" fill="#FFFFFF" d="M1408.2,253c-1.7,0-3-1.3-3-3c0-1.7,1.3-3,3-3c1.7,0,3,1.3,3,3
			C1411.2,251.7,1409.8,253,1408.2,253z M1309.1,250c0-1.7,1.3-3,3-3s3,1.3,3,3c0,1.7-1.3,3-3,3S1309.1,251.7,1309.1,250z
			 M1211.1,250c0-1.7,1.3-3,3-3c1.7,0,3,1.3,3,3c0,1.7-1.3,3-3,3C1212.5,253,1211.1,251.7,1211.1,250z M1113.1,250c0-1.7,1.3-3,3-3
			c1.7,0,3,1.3,3,3c0,1.7-1.3,3-3,3C1114.4,253,1113.1,251.7,1113.1,250z M1015.1,250c0-1.7,1.3-3,3-3c1.7,0,3,1.3,3,3
			c0,1.7-1.3,3-3,3C1016.4,253,1015.1,251.7,1015.1,250z M920.1,250c0-1.7,1.3-3,3-3c1.7,0,3,1.3,3,3c0,1.7-1.3,3-3,3
			C921.4,253,920.1,251.7,920.1,250z"/>
		<path id="XMLID_116_" fill="#FFFFFF" d="M922.1,285v-1h487.1v1H922.1z"/>
		<path id="XMLID_115_" fill="#FFFFFF" d="M926,287l-3,3l-3-3h0v-6h6L926,287L926,287z"/>
		<path id="XMLID_114_" fill="#FFFFFF" d="M1409.2,287l-3,3l-3-3h0v-6h6L1409.2,287L1409.2,287z"/>
	</g>
</g>
<g id="XMLID_125_">
	<path id="XMLID_129_" opacity="0.2" fill="#FFFFFF" enable-background="new    " d="M958-16c22.1,0,40,17.9,40,40s-17.9,40-40,40
		s-40-17.9-40-40S935.9-16,958-16z"/>
	<path id="XMLID_128_" opacity="0.2" fill="#FFFFFF" enable-background="new    " d="M958-1c13.8,0,25,11.2,25,25s-11.2,25-25,25
		s-25-11.2-25-25S944.2-1,958-1z"/>
	<path id="XMLID_127_" fill="#FFFFFF" d="M958,14c5.5,0,10,4.5,10,10s-4.5,10-10,10c-5.5,0-10-4.5-10-10S952.5,14,958,14z"/>
	<path id="XMLID_126_" fill="#3599CC" stroke="#3599CC" stroke-miterlimit="10" d="M958,19c2.8,0,5,2.2,5,5c0,2.8-2.2,5-5,5
		s-5-2.2-5-5C953,21.2,955.2,19,958,19z"/>
</g>
<g id="XMLID_130_">
	<path id="XMLID_141_" fill="#FFFFFF" d="M1124,86l-7,7v-7V-29h198V86C1315,86,1159.2,86,1124,86z"/>
	<rect id="XMLID_140_" x="1289" y="-29" fill="#FFFFFF" width="183" height="115"/>
	<path id="XMLID_137_" fill="#3197CA" d="M1464,82h-339h-4V-25h4h339h4V82H1464z M1464-21h-339v99h339V-21z"/>
</g>
<path id="XMLID_149_" fill="#3498CB" d="M1191-105.7L1191-105.7c-2.3,0-4.1-1.9-4.1-4.1v-10c0-2.3,1.9-4.1,4.1-4.1l0,0
	c2.3,0,4.1,1.9,4.1,4.1v10C1195.2-107.6,1193.3-105.7,1191-105.7z"/>
<path id="XMLID_159_" fill="#2D343D" d="M1216.2-125.9h-1.1h-4h-2.2v-5.2c0-2.2-0.7-3.9-1.9-4.8c-2-1.5-4.8-0.7-5-0.6
	c-0.4,0.1-0.6,0.5-0.6,0.8v5.9c0,1.9-0.9,3.6-2.7,4.8c-1.4,1-2.9,1.4-2.9,1.4c-0.2,0.1-0.3,0.2-0.4,0.3c-0.5-0.7-1.2-1.1-2.1-1.1
	h-3.8c-1.4,0-2.6,1.2-2.6,2.6v14.3c0,1.4,1.2,2.6,2.6,2.6h3.8c0.8,0,1.4-0.4,1.9-0.9c0.9,1.1,2.2,1.7,3.7,1.7h4.6h0.5h7.2h1.7h0.6
	c3.2,0,5.3-1.7,5.6-4.6l1.9-12.2c0-0.1,0-0.2,0-0.2v-0.1C1220.9-123.8,1218.9-125.9,1216.2-125.9z M1194.1-107.5
	c0,0.5-0.4,0.8-0.8,0.8h-3.8c-0.5,0-0.8-0.4-0.8-0.8v-14.3c0-0.5,0.4-0.8,0.8-0.8h3.8c0.5,0,0.8,0.4,0.8,0.8V-107.5z M1217.3-108.9
	L1217.3-108.9c-0.3,2.1-1.6,3.2-3.9,3.2h-0.6h-1.7h-7.2h-0.5h-4.6c-1.7,0-3-1.3-3-3v-13v-0.1c0.1,0,0.1,0,0.2,0c0.1,0,0.2,0,0.3-0.1
	c0.3-0.1,6.9-2,6.9-8v-5.2c0.7-0.1,1.9-0.2,2.8,0.5c0.8,0.6,1.2,1.7,1.2,3.4v6.1c0,0.5,0.4,0.9,0.9,0.9h3.1h4h1.1c1.7,0,3,1.3,3,3
	v0.1L1217.3-108.9z"/>
<path id="XMLID_152_" fill="#868A8D" d="M1204.4-148c0.5,0,0.9,0.4,0.9,0.9v6.7c0,0.5-0.4,0.9-0.9,0.9c-0.5,0-0.9-0.4-0.9-0.9v-6.7
	C1203.5-147.6,1203.9-148,1204.4-148z M1212.2-132.9h6.7c0.5,0,0.9,0.4,0.9,0.9s-0.4,0.9-0.9,0.9h-6.7c-0.5,0-0.9-0.4-0.9-0.9
	C1211.4-132.5,1211.8-132.9,1212.2-132.9z M1216.2-144.4c0.4,0.4,0.4,0.9,0,1.2l-4.7,4.7c-0.2,0.2-0.4,0.3-0.6,0.3s-0.5-0.1-0.6-0.3
	c-0.4-0.4-0.4-0.9,0-1.2l4.7-4.7C1215.3-144.8,1215.9-144.8,1216.2-144.4z M1198.6-132c0,0.5-0.4,0.9-0.9,0.9h-1.2h-5.5h-1.2
	c-0.5,0-0.9-0.4-0.9-0.9c0-0.5,0.4-0.9,0.9-0.9h1.2h5.5h1.2C1198.2-132.9,1198.6-132.5,1198.6-132z M1198.5-138.4
	c-0.2,0.2-0.4,0.3-0.6,0.3c-0.2,0-0.5-0.1-0.6-0.3l-4.7-4.7c-0.4-0.4-0.4-0.9,0-1.2c0.4-0.4,0.9-0.4,1.2,0l4.7,4.7
	C1198.9-139.3,1198.9-138.8,1198.5-138.4z"/>
<g id="XMLID_3_">
	<path id="XMLID_30_" fill="#2B333B" d="M1275.2-178.9l1.6-2.1c1,1,2.5,1.8,4.3,1.8c1.6,0,2.4-0.7,2.4-1.5c0-2.3-7.9-0.7-7.9-5.7
		c0-2.2,2-4,5.2-4c2.2,0,4,0.6,5.3,1.8l-1.6,2.1c-1.1-1-2.6-1.4-4-1.4c-1.2,0-1.9,0.5-1.9,1.3c0,2.1,7.8,0.7,7.8,5.6
		c0,2.4-1.8,4.2-5.5,4.2C1278.3-176.8,1276.4-177.6,1275.2-178.9z"/>
	<path id="XMLID_29_" fill="#2B333B" d="M1290.9-178.2v4.9h-2.6v-13.2h2.6v1.2c0.8-0.9,1.8-1.4,3-1.4c2.5,0,4.4,1.8,4.4,5
		s-1.8,5-4.4,5C1292.8-176.8,1291.7-177.2,1290.9-178.2z M1295.6-181.8c0-1.6-1-2.8-2.5-2.8c-0.8,0-1.8,0.5-2.2,1.1v3.4
		c0.4,0.6,1.4,1.1,2.2,1.1C1294.6-179,1295.6-180.1,1295.6-181.8z"/>
	<path id="XMLID_26_" fill="#2B333B" d="M1306.9-177v-1.2c-0.7,0.7-1.9,1.4-3.5,1.4c-2.2,0-3.2-1.1-3.2-3v-6.8h2.6v5.8
		c0,1.3,0.7,1.8,1.8,1.8c1,0,1.8-0.5,2.3-1.1v-6.5h2.6v9.5L1306.9-177L1306.9-177z"/>
	<path id="XMLID_25_" fill="#2B333B" d="M1312.6-179.4v-5h-1.6v-2.2h1.6v-2.6h2.6v2.6h2v2.2h-2v4.3c0,0.6,0.3,1,0.9,1
		c0.4,0,0.8-0.1,0.9-0.3l0.6,1.9c-0.4,0.3-1.1,0.6-2.2,0.6C1313.6-176.8,1312.6-177.7,1312.6-179.4z"/>
	<path id="XMLID_24_" fill="#2B333B" d="M1325.7-177v-5.8c0-1.3-0.7-1.8-1.8-1.8c-1,0-1.8,0.6-2.3,1.1v6.4h-2.6v-9.5h2.6v1.2
		c0.6-0.7,1.8-1.5,3.5-1.5c2.2,0,3.2,1.2,3.2,3v6.7h-2.6L1325.7-177C1325.7-177,1325.7-177,1325.7-177z"/>
	<path id="XMLID_23_" fill="#2B333B" d="M1330.6-189.1c0-0.8,0.7-1.5,1.6-1.5s1.6,0.7,1.6,1.5s-0.7,1.5-1.6,1.5
		S1330.6-188.2,1330.6-189.1z M1330.9-177v-9.5h2.6v9.5H1330.9z"/>
	<path id="XMLID_22_" fill="#2B333B" d="M1342.5-177l-2.6-3.7l-1.2,1.2v2.4h-2.7v-13.2h2.6v7.9l3.7-4.2h3.2l-3.9,4.3l4,5.2
		L1342.5-177L1342.5-177L1342.5-177z"/>
	<path id="XMLID_21_" fill="#2B333B" d="M1351.7-187.4c0-2.4,1.8-4,4-4c1.3,0,2.2,0.5,2.9,1.4l-0.6,0.4c-0.5-0.7-1.4-1.1-2.3-1.1
		c-1.9,0-3.3,1.4-3.3,3.4s1.4,3.4,3.3,3.4c1,0,1.8-0.4,2.3-1.1l0.6,0.3c-0.7,0.8-1.6,1.4-2.9,1.4
		C1353.5-183.4,1351.7-185,1351.7-187.4z"/>
	<path id="XMLID_16_" fill="#2B333B" d="M1360-183.6v-5.6h0.6v1c0.5-0.6,1.1-1.1,1.9-1.1v0.7c-0.1,0-0.2,0-0.3,0
		c-0.6,0-1.4,0.5-1.6,1v4H1360L1360-183.6z"/>
	<path id="XMLID_15_" fill="#2B333B" d="M1363.4-186.4c0-1.6,1.2-2.9,2.8-2.9c1.8,0,2.7,1.3,2.7,2.9v0.2h-4.8
		c0.1,1.2,0.9,2.2,2.3,2.2c0.7,0,1.4-0.3,1.9-0.8l0.3,0.4c-0.6,0.6-1.3,0.9-2.3,0.9C1364.7-183.4,1363.4-184.6,1363.4-186.4z
		 M1366.2-188.7c-1.4,0-2,1.1-2.1,2.1h4.2C1368.3-187.6,1367.7-188.7,1366.2-188.7z"/>
	<path id="XMLID_14_" fill="#2B333B" d="M1374.8-183.6v-0.9c-0.4,0.6-1.1,1-2,1c-1.5,0-2.6-1.1-2.6-2.9c0-1.8,1-2.9,2.6-2.9
		c0.8,0,1.5,0.4,2,1v-3h0.6v7.7L1374.8-183.6L1374.8-183.6z M1374.8-185v-2.7c-0.3-0.5-1.1-1-1.9-1c-1.3,0-2,1-2,2.4
		c0,1.4,0.7,2.4,2,2.4C1373.7-184,1374.5-184.4,1374.8-185z"/>
	<path id="XMLID_13_" fill="#2B333B" d="M1377.2-190.5c0-0.3,0.2-0.4,0.5-0.4s0.5,0.2,0.5,0.4c0,0.3-0.2,0.5-0.5,0.5
		C1377.4-190,1377.2-190.2,1377.2-190.5z M1377.4-183.6v-5.6h0.6v5.6H1377.4z"/>
	<path id="XMLID_12_" fill="#2B333B" d="M1380-184.6v-4h-1v-0.5h1v-1.5h0.6v1.5h1.2v0.5h-1.2v3.9c0,0.4,0.2,0.8,0.6,0.8
		c0.3,0,0.5-0.1,0.6-0.3l0.2,0.5c-0.2,0.2-0.5,0.3-1,0.3C1380.4-183.4,1380-183.9,1380-184.6z"/>
	<path id="XMLID_11_" fill="#2B333B" d="M1386-187.4c0-2.4,1.8-4,4-4c1.3,0,2.2,0.5,2.9,1.4l-0.6,0.4c-0.5-0.7-1.4-1.1-2.3-1.1
		c-1.9,0-3.3,1.4-3.3,3.4s1.4,3.4,3.3,3.4c1,0,1.8-0.4,2.3-1.1l0.6,0.3c-0.7,0.8-1.6,1.4-2.9,1.4C1387.8-183.4,1386-185,1386-187.4z
		"/>
	<path id="XMLID_10_" fill="#2B333B" d="M1394-186.4c0-1.6,1.1-2.9,2.8-2.9c1.7,0,2.8,1.3,2.8,2.9s-1.1,2.9-2.8,2.9
		C1395.1-183.4,1394-184.7,1394-186.4z M1398.9-186.4c0-1.2-0.8-2.4-2.1-2.4s-2.1,1.1-2.1,2.4c0,1.2,0.8,2.4,2.1,2.4
		S1398.9-185.1,1398.9-186.4z"/>
	<path id="XMLID_9_" fill="#2B333B" d="M1405-183.6v-3.8c0-1.1-0.6-1.4-1.4-1.4c-0.7,0-1.5,0.4-1.9,1v4.2h-0.6v-5.6h0.6v0.8
		c0.4-0.5,1.2-1,2.1-1c1.2,0,1.8,0.6,1.8,1.8v3.9L1405-183.6L1405-183.6z"/>
	<path id="XMLID_8_" fill="#2B333B" d="M1409.1-183.6l-2.4-5.6h0.7l2.1,4.9l2.1-4.9h0.7l-2.4,5.6
		C1409.9-183.6,1409.1-183.6,1409.1-183.6z"/>
	<path id="XMLID_7_" fill="#2B333B" d="M1413-186.4c0-1.6,1.2-2.9,2.8-2.9c1.8,0,2.7,1.3,2.7,2.9v0.2h-4.8c0.1,1.2,0.9,2.2,2.3,2.2
		c0.7,0,1.4-0.3,1.9-0.8l0.3,0.4c-0.6,0.6-1.3,0.9-2.3,0.9C1414.2-183.4,1413-184.6,1413-186.4z M1415.8-188.7c-1.4,0-2,1.1-2.1,2.1
		h4.2C1417.8-187.6,1417.2-188.7,1415.8-188.7z"/>
	<path id="XMLID_6_" fill="#2B333B" d="M1419.8-181.9c0.1,0.1,0.4,0.1,0.5,0.1c0.4,0,0.6-0.1,0.9-0.7l0.5-1l-2.4-5.6h0.7l2.1,4.9
		l2.1-4.9h0.7l-3,6.8c-0.3,0.7-0.8,1-1.5,1c-0.2,0-0.5,0-0.6-0.1L1419.8-181.9L1419.8-181.9z"/>
	<path id="XMLID_5_" fill="#2B333B" d="M1425.5-186.4c0-1.6,1.2-2.9,2.8-2.9c1.8,0,2.7,1.3,2.7,2.9v0.2h-4.8
		c0.1,1.2,0.9,2.2,2.3,2.2c0.7,0,1.4-0.3,1.9-0.8l0.3,0.4c-0.6,0.6-1.3,0.9-2.3,0.9C1426.7-183.4,1425.5-184.6,1425.5-186.4z
		 M1428.3-188.7c-1.4,0-2,1.1-2.1,2.1h4.2C1430.3-187.6,1429.7-188.7,1428.3-188.7z"/>
	<path id="XMLID_4_" fill="#2B333B" d="M1432.6-183.6v-5.6h0.6v1c0.5-0.6,1.1-1.1,1.9-1.1v0.7c-0.1,0-0.2,0-0.3,0
		c-0.6,0-1.4,0.5-1.6,1v4H1432.6L1432.6-183.6z"/>
</g>
</svg>
