<?xml version="1.0" encoding="utf-8"?>
<!-- Generator: Adobe Illustrator 18.1.1, SVG Export Plug-In . SVG Version: 6.00 Build 0)  -->
<svg version="1.1" id="Слой_1" xmlns="http://www.w3.org/2000/svg" xmlns:xlink="http://www.w3.org/1999/xlink" x="0px" y="0px"
	 width="22px" height="80px" viewBox="0 0 22 80" enable-background="new 0 0 22 80" xml:space="preserve">
<path id="XMLID_102_" fill="#EF8658" d="M10.98,23l2.437,6.86H19.959l-5.338,4.02901L16.53,40.959l-5.55-4.239l-5.54799,4.239
	L7.34,33.88901L2,29.86h6.543L10.98,23z"/>
<path id="XMLID_103_" fill="#DDDDDD" d="M10.98,0l2.437,6.85999H19.959l-5.338,4.02899l1.909,7.07001L10.98,13.72l-5.54799,4.23898
	L7.34,10.88898L2,6.85999h6.543L10.98,0z"/>
<path id="XMLID_1_" fill="#EF8658" d="M10.98,46.041l2.437,6.86H19.959l-5.338,4.02901L16.53,64l-5.55-4.239L5.43201,64
	L7.34,56.93001L2,52.901h6.543L10.98,46.041z"/>
</svg>
